#!OML:ASF H:\ManfredObstacles\Project 1\Capture day 2\Session 1\male.ASF
:FULLY-SPECIFIED
:DEGREES
228
root 1.81045 15.6255 -31.4709 -176.964 9.15435 172.684
lowerback -5.20669 4.28221 -6.68653
upperback 0.648707 6.74901 -5.32487
thorax 3.49386 3.44851 -1.24653
lowerneck -36.8158 -1.04682 -1.36905
upperneck 39.9732 -6.02066 5.25423
head 24.5949 -2.23425 1.07435
rclavicle -3.53837e-014 -1.43125e-014
rhumerus -26.3868 -2.95165 -92.8567
rradius 49.3267
rwrist 17.5307
rhand -6.90309 -10.5554
rfingers 7.12502
rthumb 18.964 -39.651
lclavicle -3.53837e-014 -1.43125e-014
lhumerus -103.411 48.9142 -29.9255
lradius 12.8322
lwrist -122.445
lhand -2.16608 9.28289
lfingers 7.12502
lthumb 23.5141 37.8657
rfemur -3.42692 3.3718 12.0374
rtibia 62.5511
rfoot 22.1511 -11.0055
rtoes -19.1891
lfemur -21.8929 -1.52058 -29.8429
ltibia 29.8105
lfoot 2.77046 21.09
ltoes 4.5738
229
root 1.80461 15.6576 -31.6591 -176.947 9.03405 172.57
lowerback -5.16257 4.13186 -6.82077
upperback 0.620558 6.54686 -5.28879
thorax 3.42523 3.34671 -1.15637
lowerneck -36.5691 -0.994994 -1.4825
upperneck 40.0352 -5.90778 5.26173
head 24.5601 -2.23295 1.13206
rclavicle -3.77194e-014 5.24792e-014
rhumerus -27.05 -3.52765 -92.6037
rradius 47.5666
rwrist 18.3517
rhand -6.50908 -10.445
rfingers 7.12502
rthumb 19.3429 -39.503
lclavicle -3.77194e-014 5.24792e-014
lhumerus -97.0365 50.3752 -20.529
lradius 12.6508
lwrist -116.91
lhand -2.17128 9.35235
lfingers 7.12502
lthumb 23.5091 37.9358
rfemur -5.52605 2.91702 11.9016
rtibia 64.9395
rfoot 20.3472 -12.3565
rtoes -18.2589
lfemur -20.7211 -1.30893 -30.1664
ltibia 29.0122
lfoot 2.45541 20.9729
ltoes 4.18544
230
root 1.79935 15.6882 -31.8463 -176.9 8.77996 172.516
lowerback -5.14614 3.93481 -6.90592
upperback 0.63368 6.28019 -5.2208
thorax 3.41926 3.20945 -1.05958
lowerneck -36.4138 -0.940134 -1.57821
upperneck 40.0863 -5.77272 5.24082
head 24.542 -2.21895 1.17833
rclavicle 2.70844e-014 -5.40694e-014
rhumerus -27.6672 -4.1942 -92.258
rradius 45.7707
rwrist 19.299
rhand -6.08764 -10.1418
rfingers 7.12502
rthumb 19.7481 -39.1586
lclavicle 2.70844e-014 -5.40694e-014
lhumerus -89.9035 51.3023 -10.3359
lradius 12.5767
lwrist -111.188
lhand -2.12853 9.37751
lfingers 7.12502
lthumb 23.5501 37.9557
rfemur -7.5899 2.38755 11.8619
rtibia 67.0885
rfoot 18.3134 -13.3891
rtoes -17.8029
lfemur -19.5914 -1.22511 -30.4086
ltibia 28.2392
lfoot 2.17022 20.8205
ltoes 3.77229
231
root 1.79434 15.7166 -32.0323 -176.816 8.40889 172.528
lowerback -5.14706 3.69196 -6.94085
upperback 0.647933 5.94577 -5.12307
thorax 3.42885 3.03695 -0.962419
lowerneck -36.3065 -0.864552 -1.62018
upperneck 40.1382 -5.60961 5.17246
head 24.5316 -2.18979 1.19652
rclavicle 1.58531e-014 3.33958e-014
rhumerus -28.3163 -4.91359 -91.8313
rradius 43.9579
rwrist 20.3239
rhand -5.64303 -9.73973
rfingers 7.12502
rthumb 20.1755 -38.712
lclavicle 1.58531e-014 3.33958e-014
lhumerus -82.0358 51.4407 0.637918
lradius 12.6211
lwrist -105.111
lhand -2.04897 9.3814
lfingers 7.12502
lthumb 23.6264 37.9497
rfemur -9.60585 1.80813 11.9207
rtibia 68.9062
rfoot 16.2729 -14.1084
rtoes -17.55
lfemur -18.5147 -1.25923 -30.565
ltibia 27.4947
lfoot 1.89929 20.644
ltoes 3.35971
232
root 1.79014 15.7388 -32.2117 -176.756 8.08333 172.553
lowerback -5.0989 3.45737 -6.98909
upperback 0.742865 5.62196 -5.00468
thorax 3.49297 2.86578 -0.836551
lowerneck -36.4502 -0.825213 -1.75376
upperneck 40.239 -5.45389 5.13113
head 24.6704 -2.16753 1.24885
rclavicle -1.81888e-014 -4.53229e-014
rhumerus -28.7921 -5.66698 -91.3522
rradius 42.2033
rwrist 21.4184
rhand -4.97914 -9.51234
rfingers 7.12502
rthumb 20.8135 -38.416
lclavicle -1.81888e-014 -4.53229e-014
lhumerus -74.0452 50.8363 11.7113
lradius 12.7506
lwrist -98.5609
lhand -2.01509 9.4995
lfingers 7.12502
lthumb 23.6589 38.0637
rfemur -11.6144 1.30228 12.0342
rtibia 70.5802
rfoot 14.3655 -14.7064
rtoes -17.3432
lfemur -17.5089 -1.25472 -30.6819
ltibia 26.8499
lfoot 1.65698 20.4437
ltoes 2.88839
233
root 1.78401 15.7624 -32.4062 -176.625 7.42761 172.611
lowerback -5.17924 3.16962 -6.93683
upperback 0.806183 5.23063 -4.88189
thorax 3.60854 2.66146 -0.757879
lowerneck -36.4761 -0.795848 -1.72158
upperneck 40.1723 -5.29187 4.96252
head 24.581 -2.12042 1.19775
rclavicle 2.96686e-014 7.95139e-015
rhumerus -29.4048 -6.68392 -90.6475
rradius 40.2593
rwrist 22.5955
rhand -4.97176 -8.55853
rfingers 7.12502
rthumb 20.8205 -37.4614
lclavicle 2.96686e-014 7.95139e-015
lhumerus -67.0247 49.6049 21.4553
lradius 13.126
lwrist -93.7434
lhand -1.81988 9.22254
lfingers 7.12502
lthumb 23.8461 37.7624
rfemur -13.4007 0.494714 12.1352
rtibia 71.7597
rfoot 12.5498 -15.0851
rtoes -18.0309
lfemur -16.491 -1.47395 -30.7864
ltibia 26.2283
lfoot 1.26287 20.2458
ltoes 2.50838
234
root 1.77844 15.7829 -32.5899 -176.388 6.77767 172.822
lowerback -5.15791 2.78722 -6.80941
upperback 0.429775 4.656 -4.73934
thorax 3.21789 2.386 -0.735305
lowerneck -35.6255 -0.527025 -1.50071
upperneck 40.2912 -5.06453 4.82432
head 24.3347 -2.07793 1.13282
rclavicle 2.55438e-014 -9.54166e-015
rhumerus -30.942 -7.38341 -90.0147
rradius 38.5224
rwrist 23.4253
rhand -4.39417 -8.31143
rfingers 7.12502
rthumb 21.3754 -37.1524
lclavicle 2.55438e-014 -9.54166e-015
lhumerus -60.06 46.2733 31.5647
lradius 13.6104
lwrist -86.7493
lhand -1.70292 9.26708
lfingers 7.12502
lthumb 23.9583 37.7922
rfemur -15.3958 -0.157921 12.473
rtibia 72.7627
rfoot 11.0206 -15.185
rtoes -17.1426
lfemur -15.6989 -1.79675 -30.7006
ltibia 25.7358
lfoot 0.854919 20.1142
ltoes 2.2244
235
root 1.76997 15.7963 -32.7827 -176.368 5.82542 172.767
lowerback -5.35552 2.44931 -6.94
upperback 1.03821 4.25425 -4.49765
thorax 3.95025 2.14333 -0.414541
lowerneck -37.01 -0.740289 -1.91928
upperneck 40.4309 -4.96175 4.71775
head 24.9894 -2.07202 1.205
rclavicle -2.24627e-014 1.11319e-014
rhumerus -30.6556 -8.4449 -88.9022
rradius 36.5113
rwrist 24.8432
rhand -4.13779 -8.05981
rfingers 7.12502
rthumb 21.6216 -36.8727
lclavicle -2.24627e-014 1.11319e-014
lhumerus -54.3283 45.2989 39.4925
lradius 13.9612
lwrist -82.6285
lhand -1.86654 8.9619
lfingers 7.12502
lthumb 23.8014 37.5076
rfemur -16.9231 -1.13211 12.4564
rtibia 73.4874
rfoot 9.11891 -15.1987
rtoes -17.7921
lfemur -14.6901 -2.06512 -30.9243
ltibia 25.3591
lfoot 0.292103 19.846
ltoes 1.64271
236
root 1.76809 15.8077 -32.968 -176.033 5.26459 172.978
lowerback -5.53972 2.28893 -6.85887
upperback 1.33464 4.03493 -4.21223
thorax 4.356 2.00398 -0.164765
lowerneck -38.0111 -0.976436 -2.30139
upperneck 40.457 -4.91117 4.63026
head 25.4044 -2.08661 1.25989
rclavicle -1.25731e-014 2.3059e-014
rhumerus -30.7314 -10.0312 -87.5227
rradius 34.5262
rwrist 26.6316
rhand -3.60479 -7.09579
rfingers 7.12502
rthumb 22.1334 -35.8489
lclavicle -1.25731e-014 2.3059e-014
lhumerus -49.1107 43.7572 46.5993
lradius 14.2471
lwrist -78.5729
lhand -2.09056 8.81688
lfingers 7.12502
lthumb 23.5865 37.3904
rfemur -18.9566 -1.69072 12.8312
rtibia 74.0679
rfoot 7.64538 -15.1559
rtoes -19.4572
lfemur -14.1299 -2.00955 -30.8351
ltibia 25.1429
lfoot -0.0778898 19.6275
ltoes 0.917364
237
root 1.7674 15.8056 -33.1382 -175.868 4.44453 173.056
lowerback -5.00867 1.10495 -7.2685
upperback 0.256989 2.37754 -4.36325
thorax 2.9942 1.24338 -0.263209
lowerneck -35.4287 0.762645 0.393738
upperneck 40.8127 -3.94727 3.78493
head 24.5275 -1.56926 0.509833
rclavicle -2.72832e-014 -5.88403e-014
rhumerus -33.4128 -9.90534 -87.9607
rradius 32.6719
rwrist 28.5703
rhand -3.40582 -6.75375
rfingers 7.12502
rthumb 22.3244 -35.484
lclavicle -2.72832e-014 -5.88403e-014
lhumerus -46.751 38.0242 51.6104
lradius 15.5385
lwrist -70.5741
lhand -1.73657 8.72194
lfingers 7.12502
lthumb 23.926 37.2513
rfemur -20.8297 -2.43357 13.1055
rtibia 74.525
rfoot 6.14191 -15.1365
rtoes -20.0822
lfemur -13.5419 -2.05995 -30.8395
ltibia 25.0484
lfoot -0.636613 19.3389
ltoes 0.442028
238
root 1.76655 15.8059 -33.3259 -175.67 3.65264 173.235
lowerback -5.20042 0.771528 -7.27382
upperback 0.402495 1.93221 -4.11221
thorax 3.26431 0.999411 -0.02641
lowerneck -35.8123 0.84307 0.518131
upperneck 40.7797 -3.71692 3.55452
head 24.6079 -1.4763 0.432872
rclavicle 2.86747e-014 -4.6118e-014
rhumerus -34.1866 -11.2864 -86.5453
rradius 31.0021
rwrist 30.2042
rhand -3.15234 -6.71671
rfingers 7.12502
rthumb 22.5678 -35.4176
lclavicle 2.86747e-014 -4.6118e-014
lhumerus -42.9419 35.0464 57.3938
lradius 16.2856
lwrist -65.8723
lhand -1.27486 8.77402
lfingers 7.12502
lthumb 24.3687 37.2446
rfemur -22.551 -3.10191 13.4548
rtibia 74.7347
rfoot 4.53584 -15.207
rtoes -18.8994
lfemur -13.016 -2.16925 -30.7298
ltibia 25.1726
lfoot -1.37998 19.2653
ltoes 0.278783
239
root 1.76939 15.8049 -33.5059 -175.472 2.78325 173.48
lowerback -5.31135 0.444009 -7.24581
upperback 0.521537 1.47718 -3.8308
thorax 3.46563 0.75203 0.217125
lowerneck -35.7622 0.869918 0.538725
upperneck 40.7191 -3.58164 3.41487
head 24.5129 -1.44119 0.392408
rclavicle 1.33683e-014 -7.07673e-014
rhumerus -34.8859 -13.026 -84.8212
rradius 29.1175
rwrist 32.3402
rhand -2.85289 -6.43983
rfingers 7.12502
rthumb 22.8551 -35.1056
lclavicle 1.33683e-014 -7.07673e-014
lhumerus -39.8069 32.4327 62.0638
lradius 17.0126
lwrist -62.5112
lhand -1.39103 8.40306
lfingers 7.12502
lthumb 24.2574 36.8886
rfemur -24.3001 -3.76373 13.9349
rtibia 74.7793
rfoot 3.06941 -15.408
rtoes -19.4023
lfemur -12.6162 -2.31684 -30.515
ltibia 25.468
lfoot -2.10459 19.1728
ltoes -0.262307
240
root 1.77475 15.7917 -33.6797 -175.337 2.01315 173.551
lowerback -5.31794 0.159142 -7.4128
upperback 0.696379 1.09792 -3.61767
thorax 3.66563 0.542622 0.500259
lowerneck -36.015 0.63189 0.114273
upperneck 40.6255 -3.73239 3.60876
head 24.5487 -1.52225 0.542286
rclavicle -9.93923e-017 2.14687e-014
rhumerus -35.6528 -15.0336 -82.961
rradius 27.3935
rwrist 34.5963
rhand -2.41523 -6.62995
rfingers 7.12502
rthumb 23.2751 -35.2432
lclavicle -9.93923e-017 2.14687e-014
lhumerus -36.5801 29.0975 66.7752
lradius 17.8938
lwrist -58.3417
lhand -0.996209 8.69882
lfingers 7.12502
lthumb 24.6358 37.1332
rfemur -26.0131 -4.36281 14.242
rtibia 74.7144
rfoot 1.88769 -15.6777
rtoes -20.2793
lfemur -12.2205 -2.4586 -30.4493
ltibia 25.8089
lfoot -2.85067 19.1407
ltoes -0.396352
241
root 1.77764 15.7747 -33.8603 -175.051 1.16471 173.772
lowerback -5.28575 -0.129446 -7.41007
upperback 0.554511 0.665279 -3.33416
thorax 3.52088 0.322039 0.75685
lowerneck -35.8024 0.697957 0.215996
upperneck 40.5944 -3.58746 3.42724
head 24.4162 -1.48517 0.462493
rclavicle 5.96354e-016 3.4191e-014
rhumerus -37.08 -17.2213 -80.5611
rradius 25.7001
rwrist 37.218
rhand -2.26481 -6.4937
rfingers 7.12502
rthumb 23.4194 -35.0886
lclavicle 5.96354e-016 3.4191e-014
lhumerus -34.6085 26.4638 70.1363
lradius 18.8076
lwrist -55.7768
lhand -0.904494 8.44486
lfingers 7.12502
lthumb 24.7237 36.8672
rfemur -27.8363 -5.06171 14.6792
rtibia 74.4764
rfoot 0.598843 -16.1515
rtoes -20.1646
lfemur -11.9757 -2.67791 -30.2146
ltibia 26.2076
lfoot -3.70597 19.1344
ltoes -0.702456
